<svg width="30" height="20" viewBox="0 0 30 20" fill="none" xmlns="http://www.w3.org/2000/svg">
<path d="M29.8652 9.5437C30.0483 9.72681 30.0483 10.0235 29.8652 10.2064L20.959 19.1126C20.8652 19.207 20.748 19.3054 20.625 19.3054C20.502 19.3054 20.3851 19.2596 20.2936 19.1681C20.1105 18.985 20.1105 18.6883 20.2936 18.5054L28.3971 10.4019H0.46875C0.210586 10.4019 0 10.1922 0 9.93312C0 9.61987 0.210586 9.46167 0.46875 9.46167H28.4004L20.2969 1.35816C20.1138 1.17505 20.1138 0.878393 20.2969 0.695463C20.48 0.512533 20.7766 0.512358 20.9596 0.695463L29.8652 9.5437Z" fill="black"/>
</svg>
