<svg width="24" height="31" viewBox="0 0 24 31" fill="none" xmlns="http://www.w3.org/2000/svg">
<path d="M6.60163 5.16902L4.27087 1" stroke="#256DC1" stroke-width="0.5" stroke-linecap="round"/>
<path d="M17.2066 5.4073L19.5374 1.23828" stroke="#256DC1" stroke-width="0.5" stroke-linecap="round"/>
<path d="M0 29.4659V16.6632C0 16.1366 0.426892 15.7097 0.953489 15.7097H23.0465C23.5731 15.7097 24 16.1366 24 16.6632V29.4659C24 29.9925 23.5731 30.4194 23.0465 30.4194H18.814C18.2874 30.4194 17.8605 29.9925 17.8605 29.4659V19.4386C17.8605 18.912 17.4336 18.4851 16.907 18.4851H6.53488C6.00829 18.4851 5.5814 18.912 5.5814 19.4386V29.4659C5.5814 29.9925 5.1545 30.4194 4.62791 30.4194H0.953488C0.426891 30.4194 0 29.9925 0 29.4659Z" fill="#256DC1"/>
<path fill-rule="evenodd" clip-rule="evenodd" d="M22.68 14.9364H0.898015C0.345731 14.9364 -0.0587203 14.4923 0.0620181 13.9534C0.684302 11.1757 3.32948 3.62048 12.1345 3.62048C19.7749 3.62048 22.8416 9.87558 23.6223 13.8421C23.7368 14.4238 23.2728 14.9364 22.68 14.9364ZM6.89033 9.57625C6.89033 10.2341 6.36857 10.7674 5.72495 10.7674C5.08133 10.7674 4.55957 10.2341 4.55957 9.57625C4.55957 8.9184 5.08133 8.3851 5.72495 8.3851C6.36857 8.3851 6.89033 8.9184 6.89033 9.57625ZM17.3787 10.7674C18.0224 10.7674 18.5441 10.2341 18.5441 9.57625C18.5441 8.9184 18.0224 8.3851 17.3787 8.3851C16.7351 8.3851 16.2134 8.9184 16.2134 9.57625C16.2134 10.2341 16.7351 10.7674 17.3787 10.7674Z" fill="#256DC1"/>
</svg>
