<svg width="34" height="32" viewBox="0 0 34 32" fill="none" xmlns="http://www.w3.org/2000/svg">
<path fill-rule="evenodd" clip-rule="evenodd" d="M15.1331 11.774C11.977 9.17961 9.41967 6.09005 7.49793 2.49048C7.11358 1.77353 6.21926 1.50004 5.49491 1.88439C4.77796 2.26874 4.50443 3.1631 4.88878 3.88745C7.00269 7.82702 9.79665 11.2122 13.2558 14.0579C13.884 14.5753 14.8227 14.4866 15.3401 13.8583C15.8575 13.2227 15.7614 12.2914 15.1331 11.774Z" fill="#060606"/>
<path fill-rule="evenodd" clip-rule="evenodd" d="M13.4502 1.67008C13.6128 4.65617 13.7606 7.64225 13.9454 10.6283C13.9971 11.4414 14.6993 12.0622 15.5124 12.0105C16.3254 11.9588 16.9463 11.2566 16.8945 10.4436C16.7097 7.46486 16.5619 4.48618 16.3993 1.50009C16.3549 0.689266 15.6528 0.0646973 14.8397 0.110523C14.0267 0.156349 13.3984 0.854817 13.4502 1.67008Z" fill="#060606"/>
<path fill-rule="evenodd" clip-rule="evenodd" d="M24.4233 2.27615C22.5312 5.12919 20.3878 7.76047 18.2295 10.4213C17.7121 11.057 17.8081 11.9883 18.4438 12.4983C19.0794 13.0157 20.0108 12.9196 20.5208 12.284C22.7382 9.55657 24.9408 6.84395 26.8921 3.9096C27.343 3.2296 27.1507 2.31311 26.4707 1.86224C25.7981 1.41137 24.8742 1.59615 24.4233 2.27615Z" fill="#060606"/>
<path fill-rule="evenodd" clip-rule="evenodd" d="M31.753 12.8827C26.6234 13.1118 21.176 13.1192 16.0464 12.794C15.2334 12.7497 14.5312 13.3631 14.4795 14.1836C14.4277 14.9966 15.0486 15.6988 15.8617 15.7505C21.0947 16.0757 26.653 16.0684 31.886 15.8392C32.6991 15.8023 33.3347 15.1075 33.2977 14.2945C33.2608 13.4814 32.566 12.8457 31.753 12.8827Z" fill="#060606"/>
<path fill-rule="evenodd" clip-rule="evenodd" d="M13.2519 13.8212C16.4154 17.6943 19.6898 21.4935 22.6241 25.5439C23.1046 26.2017 24.0285 26.3495 24.6937 25.8691C25.3516 25.3886 25.4993 24.4647 25.0189 23.8069C22.0476 19.7121 18.7363 15.8686 15.5359 11.9512C15.0185 11.323 14.0872 11.2269 13.4589 11.7443C12.8232 12.2617 12.7345 13.193 13.2519 13.8212Z" fill="#060606"/>
<path fill-rule="evenodd" clip-rule="evenodd" d="M14.2099 14.9452C15.0378 18.9808 15.2669 22.8391 15.326 26.9265C15.3334 27.7395 16.006 28.39 16.8191 28.3826C17.6395 28.3678 18.2899 27.7025 18.2751 26.8821C18.216 22.6025 17.9721 18.5743 17.1074 14.3465C16.9374 13.5482 16.1613 13.0308 15.3556 13.2008C14.5574 13.3634 14.0399 14.1469 14.2099 14.9452Z" fill="#060606"/>
<path fill-rule="evenodd" clip-rule="evenodd" d="M14.3434 14.6201C11.9486 19.4096 10.7142 24.7314 8.14946 29.4175C7.75772 30.127 8.02375 31.0287 8.74071 31.4205C9.45767 31.8122 10.3521 31.5461 10.7438 30.8365C13.3234 26.1209 14.5725 20.7696 16.9894 15.9431C17.3516 15.2113 17.0559 14.3244 16.3316 13.9548C15.5999 13.5926 14.7129 13.8883 14.3434 14.6201Z" fill="#060606"/>
<path fill-rule="evenodd" clip-rule="evenodd" d="M15.6613 13.5332C10.8939 14.3758 6.13391 14.7601 1.33696 15.3293C0.523915 15.4254 -0.0526072 16.1571 0.0434798 16.9702C0.139567 17.7832 0.871374 18.3597 1.68442 18.2636C6.53311 17.6945 11.3522 17.2954 16.1788 16.4454C16.977 16.2975 17.5166 15.5288 17.3761 14.7306C17.2283 13.9249 16.467 13.3854 15.6613 13.5332Z" fill="#060606"/>
<path fill-rule="evenodd" clip-rule="evenodd" d="M18.9786 11.2866C17.9956 11.2422 17.0643 11.1757 16.1034 11.0353C15.2903 10.917 14.5438 11.4787 14.4255 12.2844C14.3073 13.09 14.869 13.844 15.6746 13.9622C16.739 14.1174 17.7664 14.1914 18.8455 14.2357C19.6586 14.2727 20.3533 13.6444 20.3829 12.8239C20.4198 12.0109 19.7917 11.3235 18.9786 11.2866Z" fill="#060606"/>
</svg>
